<svg xmlns="http://www.w3.org/2000/svg" width="940" height="940" viewBox="0 0 940 940" role="img" aria-labelledby="title desc">
<title id='title'>Sunburst of curated skills demand</title>
<desc id='desc'>Interactive curated skills map.</desc>
<rect width='940' height='940' fill='#fbfaf7'/>
<style>

        text { font-family: Aptos, Calibri, Arial, sans-serif; fill: #111827; pointer-events: none; }
        .segment path { stroke: #ffffff; stroke-width: 2; }
        .segment { transition: transform 180ms ease, opacity 180ms ease, filter 180ms ease; cursor: pointer; outline: none; }
        .segment.is-dimmed { opacity: 0.18; }
        .segment.is-active { filter: drop-shadow(0 12px 18px rgba(15, 23, 42, 0.20)); }
        .segment:focus-visible path { stroke: #111827; stroke-width: 3; }
        
</style>
<g class='ring'>
<g class='segment segment-heading' tabindex='0' role='button' data-type='heading' data-heading='Learning design &amp; digital learning' data-label='Learning design &amp; digital learning' data-total='55' data-top-subskills='Instructional design (22) || Learning architecture &amp; programme design (16) || Digital learning production (11) || Learning needs analysis (6)' data-color='#1f77b4' data-dx='5.90' data-dy='-12.69'>
<path d="M 470.00 225.00 A 245.00 245.00 0 0 1 657.33 312.10 L 532.70 417.15 A 82.00 82.00 0 0 0 470.00 388.00 Z" fill="#1f77b4"><title>Learning design &amp; digital learning: 55% of job adverts</title></path>
</g>
<g class='segment segment-subskill' tabindex='0' role='button' data-type='subskill' data-heading='Learning design &amp; digital learning' data-subskill='Instructional design' data-label='Instructional design' data-jds='22' data-pct='22%' data-weight='34.5' data-member-phrases='instructional design | learning principles | design expertise | design process | learning theories' data-dx='3.12' data-dy='-17.73'>
<path d="M 470.00 40.00 A 430.00 430.00 0 0 1 616.71 65.80 L 555.98 233.12 A 252.00 252.00 0 0 0 470.00 218.00 Z" fill="#478fc1"><title>Instructional design (Learning design &amp; digital learning)
22% of job adverts</title></path>
</g>
<g class='segment segment-subskill' tabindex='0' role='button' data-type='subskill' data-heading='Learning design &amp; digital learning' data-subskill='Learning architecture &amp; programme design' data-label='Learning architecture &amp; programme design' data-jds='16' data-pct='16%' data-weight='21.8' data-member-phrases='learning programmes | learning products | end-to-end learning design | scenario-based learning | learning journeys | programme design' data-dx='8.23' data-dy='-16.01'>
<path d="M 616.71 65.80 A 430.00 430.00 0 0 1 713.30 115.45 L 612.58 262.22 A 252.00 252.00 0 0 0 555.98 233.12 Z" fill="#70a8cf"><title>Learning architecture &amp; programme design (Learning design &amp; digital learning)
16% of job adverts</title></path>
</g>
<g class='segment segment-subskill' tabindex='0' role='button' data-type='subskill' data-heading='Learning design &amp; digital learning' data-subskill='Digital learning production' data-label='Digital learning production' data-jds='11' data-pct='11%' data-weight='16.5' data-member-phrases='engaging digital learning experiences | creating digital learning content | elearning development | courseware and media | outcome-driven elearning' data-dx='11.44' data-dy='-13.90'>
<path d="M 713.30 115.45 A 430.00 430.00 0 0 1 771.03 162.95 L 646.42 290.06 A 252.00 252.00 0 0 0 612.58 262.22 Z" fill="#99c1dd"><title>Digital learning production (Learning design &amp; digital learning)
11% of job adverts</title></path>
</g>
<g class='segment segment-subskill' tabindex='0' role='button' data-type='subskill' data-heading='Learning design &amp; digital learning' data-subskill='Learning needs analysis' data-label='Learning needs analysis' data-jds='6' data-pct='6%' data-weight='6.0' data-member-phrases='learning needs analysis | learner-centred design' data-dx='13.20' data-dy='-12.24'>
<path d="M 771.03 162.95 A 430.00 430.00 0 0 1 798.79 192.88 L 662.69 307.59 A 252.00 252.00 0 0 0 646.42 290.06 Z" fill="#c2daea"><title>Learning needs analysis (Learning design &amp; digital learning)
6% of job adverts</title></path>
</g>
<g class='segment segment-heading' tabindex='0' role='button' data-type='heading' data-heading='Stakeholder management &amp; collaboration' data-label='Stakeholder management &amp; collaboration' data-total='59' data-top-subskills='Stakeholder management (22) || Cross-functional collaboration (11) || SME collaboration (8) || Client relationship management (7) || Performance consulting (6) || Business alignment (5)' data-color='#ff7f0e' data-dx='13.62' data-dy='-3.24'>
<path d="M 657.33 312.10 A 245.00 245.00 0 0 1 708.35 526.68 L 549.78 488.97 A 82.00 82.00 0 0 0 532.70 417.15 Z" fill="#ff7f0e"><title>Stakeholder management &amp; collaboration: 59% of job adverts</title></path>
</g>
<g class='segment segment-subskill' tabindex='0' role='button' data-type='subskill' data-heading='Stakeholder management &amp; collaboration' data-subskill='Stakeholder management' data-label='Stakeholder management' data-jds='22' data-pct='22%' data-weight='31.5' data-member-phrases='stakeholder management | stakeholder engagement | senior stakeholders | external stakeholders | internal stakeholders | technical stakeholders' data-dx='15.56' data-dy='-9.04'>
<path d="M 798.79 192.88 A 430.00 430.00 0 0 1 873.61 321.69 L 706.54 383.08 A 252.00 252.00 0 0 0 662.69 307.59 Z" fill="#ff9639"><title>Stakeholder management (Stakeholder management &amp; collaboration)
22% of job adverts</title></path>
</g>
<g class='segment segment-subskill' tabindex='0' role='button' data-type='subskill' data-heading='Stakeholder management &amp; collaboration' data-subskill='Cross-functional collaboration' data-label='Cross-functional collaboration' data-jds='11' data-pct='11%' data-weight='12.5' data-member-phrases='cross-functional collaboration | SME collaboration' data-dx='17.37' data-dy='-4.72'>
<path d="M 873.61 321.69 A 430.00 430.00 0 0 1 893.20 393.84 L 718.02 425.37 A 252.00 252.00 0 0 0 706.54 383.08 Z" fill="#ffa453"><title>Cross-functional collaboration (Stakeholder management &amp; collaboration)
11% of job adverts</title></path>
</g>
<g class='segment segment-subskill' tabindex='0' role='button' data-type='subskill' data-heading='Stakeholder management &amp; collaboration' data-subskill='SME collaboration' data-label='SME collaboration' data-jds='8' data-pct='8%' data-weight='10.0' data-member-phrases='subject matter experts | subject matter expertise' data-dx='17.88' data-dy='-2.06'>
<path d="M 893.20 393.84 A 430.00 430.00 0 0 1 899.43 447.89 L 721.67 457.04 A 252.00 252.00 0 0 0 718.02 425.37 Z" fill="#ffb26e"><title>SME collaboration (Stakeholder management &amp; collaboration)
8% of job adverts</title></path>
</g>
<g class='segment segment-subskill' tabindex='0' role='button' data-type='subskill' data-heading='Stakeholder management &amp; collaboration' data-subskill='Client relationship management' data-label='Client relationship management' data-jds='7' data-pct='7%' data-weight='6.0' data-member-phrases='client engagement | client relationships' data-dx='18.00' data-dy='0.07'>
<path d="M 899.43 447.89 A 430.00 430.00 0 0 1 899.24 495.51 L 721.56 484.95 A 252.00 252.00 0 0 0 721.67 457.04 Z" fill="#ffc088"><title>Client relationship management (Stakeholder management &amp; collaboration)
7% of job adverts</title></path>
</g>
<g class='segment segment-subskill' tabindex='0' role='button' data-type='subskill' data-heading='Stakeholder management &amp; collaboration' data-subskill='Performance consulting' data-label='Performance consulting' data-jds='6' data-pct='6%' data-weight='8.0' data-member-phrases='business needs analysis | business objectives | client challenge translation' data-dx='17.90' data-dy='1.92'>
<path d="M 899.24 495.51 A 430.00 430.00 0 0 1 894.89 536.09 L 719.01 508.73 A 252.00 252.00 0 0 0 721.56 484.95 Z" fill="#ffcea3"><title>Performance consulting (Stakeholder management &amp; collaboration)
6% of job adverts</title></path>
</g>
<g class='segment segment-subskill' tabindex='0' role='button' data-type='subskill' data-heading='Stakeholder management &amp; collaboration' data-subskill='Business alignment' data-label='Business alignment' data-jds='5' data-pct='5%' data-weight='5.5' data-member-phrases='business goals alignment' data-dx='17.66' data-dy='3.47'>
<path d="M 894.89 536.09 A 430.00 430.00 0 0 1 888.34 569.47 L 715.16 528.29 A 252.00 252.00 0 0 0 719.01 508.73 Z" fill="#ffdcbd"><title>Business alignment (Stakeholder management &amp; collaboration)
5% of job adverts</title></path>
</g>
<g class='segment segment-heading' tabindex='0' role='button' data-type='heading' data-heading='Strategy &amp; capability development' data-label='Strategy &amp; capability development' data-total='36' data-top-subskills='Leadership &amp; talent development (9) || Product strategy &amp; product development (7) || Organisational development &amp; learning culture (7) || Capability development (7) || Learning strategy (6)' data-color='#2ca02c' data-dx='12.16' data-dy='6.94'>
<path d="M 708.35 526.68 A 245.00 245.00 0 0 1 640.13 646.30 L 526.94 529.01 A 82.00 82.00 0 0 0 549.78 488.97 Z" fill="#2ca02c"><title>Strategy &amp; capability development: 36% of job adverts</title></path>
</g>
<g class='segment segment-subskill' tabindex='0' role='button' data-type='subskill' data-heading='Strategy &amp; capability development' data-subskill='Leadership &amp; talent development' data-label='Leadership &amp; talent development' data-jds='9' data-pct='9%' data-weight='18.0' data-member-phrases='leadership development | talent development | development programmes | career development' data-dx='17.17' data-dy='5.40'>
<path d="M 888.34 569.47 A 430.00 430.00 0 0 1 869.98 627.85 L 704.41 562.51 A 252.00 252.00 0 0 0 715.16 528.29 Z" fill="#51b151"><title>Leadership &amp; talent development (Strategy &amp; capability development)
9% of job adverts</title></path>
</g>
<g class='segment segment-subskill' tabindex='0' role='button' data-type='subskill' data-heading='Strategy &amp; capability development' data-subskill='Product strategy &amp; product development' data-label='Product strategy &amp; product development' data-jds='7' data-pct='7%' data-weight='10.0' data-member-phrases='product development | software development | product strategy | agile/scrum development' data-dx='16.35' data-dy='7.52'>
<path d="M 869.98 627.85 A 430.00 430.00 0 0 1 850.07 671.10 L 692.74 587.86 A 252.00 252.00 0 0 0 704.41 562.51 Z" fill="#6ebe6e"><title>Product strategy &amp; product development (Strategy &amp; capability development)
7% of job adverts</title></path>
</g>
<g class='segment segment-subskill' tabindex='0' role='button' data-type='subskill' data-heading='Strategy &amp; capability development' data-subskill='Organisational development &amp; learning culture' data-label='Organisational development &amp; learning culture' data-jds='7' data-pct='7%' data-weight='6.0' data-member-phrases='continuous learning culture | learning culture | organisational development' data-dx='15.42' data-dy='9.29'>
<path d="M 850.07 671.10 A 430.00 430.00 0 0 1 825.51 711.89 L 678.35 611.76 A 252.00 252.00 0 0 0 692.74 587.86 Z" fill="#8ccb8c"><title>Organisational development &amp; learning culture (Strategy &amp; capability development)
7% of job adverts</title></path>
</g>
<g class='segment segment-subskill' tabindex='0' role='button' data-type='subskill' data-heading='Strategy &amp; capability development' data-subskill='Capability development' data-label='Capability development' data-jds='7' data-pct='7%' data-weight='5.0' data-member-phrases='capability building | capability development' data-dx='14.30' data-dy='10.93'>
<path d="M 825.51 711.89 A 430.00 430.00 0 0 1 796.59 749.72 L 661.40 633.93 A 252.00 252.00 0 0 0 678.35 611.76 Z" fill="#a9d8a9"><title>Capability development (Strategy &amp; capability development)
7% of job adverts</title></path>
</g>
<g class='segment segment-subskill' tabindex='0' role='button' data-type='subskill' data-heading='Strategy &amp; capability development' data-subskill='Learning strategy' data-label='Learning strategy' data-jds='6' data-pct='6%' data-weight='6.0' data-member-phrases='learning strategy | strategic goals | strategic mindset' data-dx='13.10' data-dy='12.34'>
<path d="M 796.59 749.72 A 430.00 430.00 0 0 1 768.59 779.42 L 644.99 651.34 A 252.00 252.00 0 0 0 661.40 633.93 Z" fill="#c6e5c6"><title>Learning strategy (Strategy &amp; capability development)
6% of job adverts</title></path>
</g>
<g class='segment segment-heading' tabindex='0' role='button' data-type='heading' data-heading='Learning platforms &amp; learning tech' data-label='Learning platforms &amp; learning tech' data-total='36' data-top-subskills='Learning platform ecosystem (21) || Emerging learning technology (6) || Standards &amp; interoperability (5) || LMS / LXP administration (4)' data-color='#d62728' data-dx='6.50' data-dy='12.40'>
<path d="M 640.13 646.30 A 245.00 245.00 0 0 1 518.15 710.22 L 486.12 550.40 A 82.00 82.00 0 0 0 526.94 529.01 Z" fill="#d62728"><title>Learning platforms &amp; learning tech: 36% of job adverts</title></path>
</g>
<g class='segment segment-subskill' tabindex='0' role='button' data-type='subskill' data-heading='Learning platforms &amp; learning tech' data-subskill='Learning platform ecosystem' data-label='Learning platform ecosystem' data-jds='21' data-pct='21%' data-weight='29.2' data-member-phrases='LMS platforms | learning platforms | learning systems | LMS/LXP ecosystem | platform operations | learning management systems' data-dx='10.18' data-dy='14.84'>
<path d="M 768.59 779.42 A 430.00 430.00 0 0 1 651.30 859.91 L 576.25 698.51 A 252.00 252.00 0 0 0 644.99 651.34 Z" fill="#dd4d4e"><title>Learning platform ecosystem (Learning platforms &amp; learning tech)
21% of job adverts</title></path>
</g>
<g class='segment segment-subskill' tabindex='0' role='button' data-type='subskill' data-heading='Learning platforms &amp; learning tech' data-subskill='Emerging learning technology' data-label='Emerging learning technology' data-jds='6' data-pct='6%' data-weight='9.0' data-member-phrases='emerging technologies | new technologies | technology stacks' data-dx='6.81' data-dy='16.66'>
<path d="M 651.30 859.91 A 430.00 430.00 0 0 1 613.51 875.35 L 554.10 707.55 A 252.00 252.00 0 0 0 576.25 698.51 Z" fill="#e47576"><title>Emerging learning technology (Learning platforms &amp; learning tech)
6% of job adverts</title></path>
</g>
<g class='segment segment-subskill' tabindex='0' role='button' data-type='subskill' data-heading='Learning platforms &amp; learning tech' data-subskill='Standards &amp; interoperability' data-label='Standards &amp; interoperability' data-jds='5' data-pct='5%' data-weight='8.0' data-member-phrases='SCORM/xAPI' data-dx='5.33' data-dy='17.19'>
<path d="M 613.51 875.35 A 430.00 430.00 0 0 1 581.02 885.42 L 535.06 713.46 A 252.00 252.00 0 0 0 554.10 707.55 Z" fill="#ec9d9d"><title>Standards &amp; interoperability (Learning platforms &amp; learning tech)
5% of job adverts</title></path>
</g>
<g class='segment segment-subskill' tabindex='0' role='button' data-type='subskill' data-heading='Learning platforms &amp; learning tech' data-subskill='LMS / LXP administration' data-label='LMS / LXP administration' data-jds='4' data-pct='4%' data-weight='9.0' data-member-phrases='LMS administration | Moodle-based LMS | Totara administration' data-dx='4.09' data-dy='17.53'>
<path d="M 581.02 885.42 A 430.00 430.00 0 0 1 554.51 891.61 L 519.53 717.08 A 252.00 252.00 0 0 0 535.06 713.46 Z" fill="#f3c4c4"><title>LMS / LXP administration (Learning platforms &amp; learning tech)
4% of job adverts</title></path>
</g>
<g class='segment segment-heading' tabindex='0' role='button' data-type='heading' data-heading='Project delivery &amp; prioritisation' data-label='Project delivery &amp; prioritisation' data-total='43' data-top-subskills='Multi-project management &amp; prioritisation (20) || Project management (10) || Deadline &amp; time management (7) || Change management (4) || Delivery coordination (2)' data-color='#9467bd' data-dx='-1.99' data-dy='13.86'>
<path d="M 518.15 710.22 A 245.00 245.00 0 0 1 356.27 687.01 L 431.94 542.63 A 82.00 82.00 0 0 0 486.12 550.40 Z" fill="#9467bd"><title>Project delivery &amp; prioritisation: 43% of job adverts</title></path>
</g>
<g class='segment segment-subskill' tabindex='0' role='button' data-type='subskill' data-heading='Project delivery &amp; prioritisation' data-subskill='Multi-project management &amp; prioritisation' data-label='Multi-project management &amp; prioritisation' data-jds='20' data-pct='20%' data-weight='18.0' data-member-phrases='multiple project management' data-dx='0.71' data-dy='17.99'>
<path d="M 554.51 891.61 A 430.00 430.00 0 0 1 419.08 896.97 L 440.16 720.23 A 252.00 252.00 0 0 0 519.53 717.08 Z" fill="#a782c8"><title>Multi-project management &amp; prioritisation (Project delivery &amp; prioritisation)
20% of job adverts</title></path>
</g>
<g class='segment segment-subskill' tabindex='0' role='button' data-type='subskill' data-heading='Project delivery &amp; prioritisation' data-subskill='Project management' data-label='Project management' data-jds='10' data-pct='10%' data-weight='12.0' data-member-phrases='project management' data-dx='-3.54' data-dy='17.65'>
<path d="M 419.08 896.97 A 430.00 430.00 0 0 1 352.42 883.61 L 401.09 712.40 A 252.00 252.00 0 0 0 440.16 720.23 Z" fill="#b597d1"><title>Project management (Project delivery &amp; prioritisation)
10% of job adverts</title></path>
</g>
<g class='segment segment-subskill' tabindex='0' role='button' data-type='subskill' data-heading='Project delivery &amp; prioritisation' data-subskill='Deadline &amp; time management' data-label='Deadline &amp; time management' data-jds='7' data-pct='7%' data-weight='12.0' data-member-phrases='deadline management | time management' data-dx='-5.87' data-dy='17.01'>
<path d="M 352.42 883.61 A 430.00 430.00 0 0 1 307.41 868.08 L 374.72 703.29 A 252.00 252.00 0 0 0 401.09 712.40 Z" fill="#c4acdb"><title>Deadline &amp; time management (Project delivery &amp; prioritisation)
7% of job adverts</title></path>
</g>
<g class='segment segment-subskill' tabindex='0' role='button' data-type='subskill' data-heading='Project delivery &amp; prioritisation' data-subskill='Change management' data-label='Change management' data-jds='4' data-pct='4%' data-weight='2.0' data-member-phrases='change management' data-dx='-7.33' data-dy='16.44'>
<path d="M 307.41 868.08 A 430.00 430.00 0 0 1 282.55 856.99 L 360.15 696.80 A 252.00 252.00 0 0 0 374.72 703.29 Z" fill="#d3c1e4"><title>Change management (Project delivery &amp; prioritisation)
4% of job adverts</title></path>
</g>
<g class='segment segment-subskill' tabindex='0' role='button' data-type='subskill' data-heading='Project delivery &amp; prioritisation' data-subskill='Delivery coordination' data-label='Delivery coordination' data-jds='2' data-pct='2%' data-weight='2.0' data-member-phrases='content delivery coordination' data-dx='-8.10' data-dy='16.07'>
<path d="M 282.55 856.99 A 430.00 430.00 0 0 1 270.40 850.87 L 353.03 693.21 A 252.00 252.00 0 0 0 360.15 696.80 Z" fill="#e2d5ed"><title>Delivery coordination (Project delivery &amp; prioritisation)
2% of job adverts</title></path>
</g>
<g class='segment segment-heading' tabindex='0' role='button' data-type='heading' data-heading='Quality, standards &amp; continuous improvement' data-label='Quality, standards &amp; continuous improvement' data-total='36' data-top-subskills='Attention to detail (11) || Quality assurance &amp; standards (10) || Continuous improvement (8) || Quality delivery (5) || Risk management (2)' data-color='#8c564b' data-dx='-9.72' data-dy='10.07'>
<path d="M 356.27 687.01 A 245.00 245.00 0 0 1 257.18 591.38 L 398.77 510.62 A 82.00 82.00 0 0 0 431.94 542.63 Z" fill="#8c564b"><title>Quality, standards &amp; continuous improvement: 36% of job adverts</title></path>
</g>
<g class='segment segment-subskill' tabindex='0' role='button' data-type='subskill' data-heading='Quality, standards &amp; continuous improvement' data-subskill='Attention to detail' data-label='Attention to detail' data-jds='11' data-pct='11%' data-weight='14.0' data-member-phrases='attention to detail' data-dx='-9.71' data-dy='15.16'>
<path d="M 270.40 850.87 A 430.00 430.00 0 0 1 207.45 810.54 L 316.13 669.57 A 252.00 252.00 0 0 0 353.03 693.21 Z" fill="#a0746b"><title>Attention to detail (Quality, standards &amp; continuous improvement)
11% of job adverts</title></path>
</g>
<g class='segment segment-subskill' tabindex='0' role='button' data-type='subskill' data-heading='Quality, standards &amp; continuous improvement' data-subskill='Quality assurance &amp; standards' data-label='Quality assurance &amp; standards' data-jds='10' data-pct='10%' data-weight='13.5' data-member-phrases='quality assurance | quality standards | industry standards | accessibility standards' data-dx='-12.08' data-dy='13.34'>
<path d="M 207.45 810.54 A 430.00 430.00 0 0 1 157.06 764.90 L 286.60 642.83 A 252.00 252.00 0 0 0 316.13 669.57 Z" fill="#b08b84"><title>Quality assurance &amp; standards (Quality, standards &amp; continuous improvement)
10% of job adverts</title></path>
</g>
<g class='segment segment-subskill' tabindex='0' role='button' data-type='subskill' data-heading='Quality, standards &amp; continuous improvement' data-subskill='Continuous improvement' data-label='Continuous improvement' data-jds='8' data-pct='8%' data-weight='12.0' data-member-phrases='continuous improvement | process improvements' data-dx='-13.85' data-dy='11.49'>
<path d="M 157.06 764.90 A 430.00 430.00 0 0 1 122.32 723.02 L 266.24 618.28 A 252.00 252.00 0 0 0 286.60 642.83 Z" fill="#c0a29c"><title>Continuous improvement (Quality, standards &amp; continuous improvement)
8% of job adverts</title></path>
</g>
<g class='segment segment-subskill' tabindex='0' role='button' data-type='subskill' data-heading='Quality, standards &amp; continuous improvement' data-subskill='Quality delivery' data-label='Quality delivery' data-jds='5' data-pct='5%' data-weight='7.0' data-member-phrases='high-quality work | high-quality educational outputs' data-dx='-14.96' data-dy='10.01'>
<path d="M 122.32 723.02 A 430.00 430.00 0 0 1 103.41 694.75 L 255.16 601.71 A 252.00 252.00 0 0 0 266.24 618.28 Z" fill="#d0bab5"><title>Quality delivery (Quality, standards &amp; continuous improvement)
5% of job adverts</title></path>
</g>
<g class='segment segment-subskill' tabindex='0' role='button' data-type='subskill' data-heading='Quality, standards &amp; continuous improvement' data-subskill='Risk management' data-label='Risk management' data-jds='2' data-pct='2%' data-weight='4.0' data-member-phrases='risk management' data-dx='-15.49' data-dy='9.16'>
<path d="M 103.41 694.75 A 430.00 430.00 0 0 1 96.48 683.03 L 251.10 594.85 A 252.00 252.00 0 0 0 255.16 601.71 Z" fill="#dfd1ce"><title>Risk management (Quality, standards &amp; continuous improvement)
2% of job adverts</title></path>
</g>
<g class='segment segment-heading' tabindex='0' role='button' data-type='heading' data-heading='Coaching, facilitation &amp; training delivery' data-label='Coaching, facilitation &amp; training delivery' data-total='26' data-top-subskills='Training delivery (13) || Coaching &amp; mentoring (8) || Training content (3) || Facilitation (2)' data-color='#e377c2' data-dx='-13.32' data-dy='4.31'>
<path d="M 257.18 591.38 A 245.00 245.00 0 0 1 226.40 496.12 L 388.47 478.74 A 82.00 82.00 0 0 0 398.77 510.62 Z" fill="#e377c2"><title>Coaching, facilitation &amp; training delivery: 26% of job adverts</title></path>
</g>
<g class='segment segment-subskill' tabindex='0' role='button' data-type='subskill' data-heading='Coaching, facilitation &amp; training delivery' data-subskill='Training delivery' data-label='Training delivery' data-jds='13' data-pct='13%' data-weight='11.8' data-member-phrases='compliance training | effective training delivery | software training | training consulting | sales training | technical training' data-dx='-16.47' data-dy='7.26'>
<path d="M 96.48 683.03 A 430.00 430.00 0 0 1 60.84 602.23 L 230.21 547.49 A 252.00 252.00 0 0 0 251.10 594.85 Z" fill="#e88fcc"><title>Training delivery (Coaching, facilitation &amp; training delivery)
13% of job adverts</title></path>
</g>
<g class='segment segment-subskill' tabindex='0' role='button' data-type='subskill' data-heading='Coaching, facilitation &amp; training delivery' data-subskill='Coaching &amp; mentoring' data-label='Coaching &amp; mentoring' data-jds='8' data-pct='8%' data-weight='12.5' data-member-phrases='coaching | mentoring' data-dx='-17.44' data-dy='4.44'>
<path d="M 60.84 602.23 A 430.00 430.00 0 0 1 47.41 549.50 L 222.34 516.59 A 252.00 252.00 0 0 0 230.21 547.49 Z" fill="#eda8d8"><title>Coaching &amp; mentoring (Coaching, facilitation &amp; training delivery)
8% of job adverts</title></path>
</g>
<g class='segment segment-subskill' tabindex='0' role='button' data-type='subskill' data-heading='Coaching, facilitation &amp; training delivery' data-subskill='Training content' data-label='Training content' data-jds='3' data-pct='3%' data-weight='4.0' data-member-phrases='training content' data-dx='-17.76' data-dy='2.91'>
<path d="M 47.41 549.50 A 430.00 430.00 0 0 1 44.12 529.36 L 220.41 504.79 A 252.00 252.00 0 0 0 222.34 516.59 Z" fill="#f2c1e3"><title>Training content (Coaching, facilitation &amp; training delivery)
3% of job adverts</title></path>
</g>
<g class='segment segment-subskill' tabindex='0' role='button' data-type='subskill' data-heading='Coaching, facilitation &amp; training delivery' data-subskill='Facilitation' data-label='Facilitation' data-jds='2' data-pct='2%' data-weight='6.0' data-member-phrases='facilitation skills | structured problem-solving facilitation' data-dx='-17.86' data-dy='2.20'>
<path d="M 44.12 529.36 A 430.00 430.00 0 0 1 42.45 515.85 L 219.44 496.87 A 252.00 252.00 0 0 0 220.41 504.79 Z" fill="#f7daee"><title>Facilitation (Coaching, facilitation &amp; training delivery)
2% of job adverts</title></path>
</g>
<g class='segment segment-heading' tabindex='0' role='button' data-type='heading' data-heading='Communication' data-label='Communication' data-total='27' data-top-subskills='Core communication (21) || Writing &amp; verbal communication (6)' data-color='#7f7f7f' data-dx='-13.92' data-dy='-1.49'>
<path d="M 226.40 496.12 A 245.00 245.00 0 0 1 237.48 392.82 L 392.18 444.17 A 82.00 82.00 0 0 0 388.47 478.74 Z" fill="#7f7f7f"><title>Communication: 27% of job adverts</title></path>
</g>
<g class='segment segment-subskill' tabindex='0' role='button' data-type='subskill' data-heading='Communication' data-subskill='Core communication' data-label='Core communication' data-jds='21' data-pct='21%' data-weight='23.5' data-member-phrases='communication' data-dx='-17.97' data-dy='-1.07'>
<path d="M 42.45 515.85 A 430.00 430.00 0 0 1 50.89 373.84 L 224.38 413.65 A 252.00 252.00 0 0 0 219.44 496.87 Z" fill="#969696"><title>Core communication (Communication)
21% of job adverts</title></path>
</g>
<g class='segment segment-subskill' tabindex='0' role='button' data-type='subskill' data-heading='Communication' data-subskill='Writing &amp; verbal communication' data-label='Writing &amp; verbal communication' data-jds='6' data-pct='6%' data-weight='9.5' data-member-phrases='writing | written and verbal communication' data-dx='-17.33' data-dy='-4.85'>
<path d="M 50.89 373.84 A 430.00 430.00 0 0 1 61.90 334.54 L 230.83 390.61 A 252.00 252.00 0 0 0 224.38 413.65 Z" fill="#dcdcdc"><title>Writing &amp; verbal communication (Communication)
6% of job adverts</title></path>
</g>
<g class='segment segment-heading' tabindex='0' role='button' data-type='heading' data-heading='Analytics &amp; problem solving' data-label='Analytics &amp; problem solving' data-total='28' data-top-subskills='Problem solving (11) || Data-driven decision making (8) || Learning analytics (5) || Insight &amp; skills analysis (4)' data-color='#bcbd22' data-dx='-11.99' data-dy='-7.22'>
<path d="M 237.48 392.82 A 245.00 245.00 0 0 1 293.03 300.57 L 410.77 413.29 A 82.00 82.00 0 0 0 392.18 444.17 Z" fill="#bcbd22"><title>Analytics &amp; problem solving: 28% of job adverts</title></path>
</g>
<g class='segment segment-subskill' tabindex='0' role='button' data-type='subskill' data-heading='Analytics &amp; problem solving' data-subskill='Problem solving' data-label='Problem solving' data-jds='11' data-pct='11%' data-weight='16.0' data-member-phrases='problem solving | solving problems' data-dx='-16.53' data-dy='-7.13'>
<path d="M 61.90 334.54 A 430.00 430.00 0 0 1 91.53 265.89 L 248.20 350.38 A 252.00 252.00 0 0 0 230.83 390.61 Z" fill="#c8c849"><title>Problem solving (Analytics &amp; problem solving)
11% of job adverts</title></path>
</g>
<g class='segment segment-subskill' tabindex='0' role='button' data-type='subskill' data-heading='Analytics &amp; problem solving' data-subskill='Data-driven decision making' data-label='Data-driven decision making' data-jds='8' data-pct='8%' data-weight='8.5' data-member-phrases='data-driven decision making' data-dx='-15.27' data-dy='-9.53'>
<path d="M 91.53 265.89 A 430.00 430.00 0 0 1 120.33 219.74 L 265.08 323.33 A 252.00 252.00 0 0 0 248.20 350.38 Z" fill="#d4d472"><title>Data-driven decision making (Analytics &amp; problem solving)
8% of job adverts</title></path>
</g>
<g class='segment segment-subskill' tabindex='0' role='button' data-type='subskill' data-heading='Analytics &amp; problem solving' data-subskill='Learning analytics' data-label='Learning analytics' data-jds='5' data-pct='5%' data-weight='2.5' data-member-phrases='learning analytics' data-dx='-14.21' data-dy='-11.05'>
<path d="M 120.33 219.74 A 430.00 430.00 0 0 1 141.21 192.88 L 277.31 307.59 A 252.00 252.00 0 0 0 265.08 323.33 Z" fill="#e0e19a"><title>Learning analytics (Analytics &amp; problem solving)
5% of job adverts</title></path>
</g>
<g class='segment segment-subskill' tabindex='0' role='button' data-type='subskill' data-heading='Analytics &amp; problem solving' data-subskill='Insight &amp; skills analysis' data-label='Insight &amp; skills analysis' data-jds='4' data-pct='4%' data-weight='4.5' data-member-phrases='market insight | skills-gap analysis' data-dx='-13.39' data-dy='-12.03'>
<path d="M 141.21 192.88 A 430.00 430.00 0 0 1 159.40 172.63 L 287.97 295.73 A 252.00 252.00 0 0 0 277.31 307.59 Z" fill="#ecedc3"><title>Insight &amp; skills analysis (Analytics &amp; problem solving)
4% of job adverts</title></path>
</g>
<g class='segment segment-heading' tabindex='0' role='button' data-type='heading' data-heading='Authoring tools &amp; multimedia production' data-label='Authoring tools &amp; multimedia production' data-total='38' data-top-subskills='Authoring tools (14) || Articulate toolchain (9) || Adobe &amp; creative tools (6) || Graphic &amp; visual design (5) || Multimedia &amp; video production (4)' data-color='#17becf' data-dx='-6.79' data-dy='-12.24'>
<path d="M 293.03 300.57 A 245.00 245.00 0 0 1 419.95 230.17 L 453.25 389.73 A 82.00 82.00 0 0 0 410.77 413.29 Z" fill="#17becf"><title>Authoring tools &amp; multimedia production: 38% of job adverts</title></path>
</g>
<g class='segment segment-subskill' tabindex='0' role='button' data-type='subskill' data-heading='Authoring tools &amp; multimedia production' data-subskill='Authoring tools' data-label='Authoring tools' data-jds='14' data-pct='14%' data-weight='16.5' data-member-phrases='authoring tools | content authoring' data-dx='-11.55' data-dy='-13.81'>
<path d="M 159.40 172.63 A 430.00 430.00 0 0 1 232.34 111.64 L 330.72 259.99 A 252.00 252.00 0 0 0 287.97 295.73 Z" fill="#40c9d7"><title>Authoring tools (Authoring tools &amp; multimedia production)
14% of job adverts</title></path>
</g>
<g class='segment segment-subskill' tabindex='0' role='button' data-type='subskill' data-heading='Authoring tools &amp; multimedia production' data-subskill='Articulate toolchain' data-label='Articulate toolchain' data-jds='9' data-pct='9%' data-weight='8.5' data-member-phrases='Articulate Storyline | Articulate 360 | Articulate Rise' data-dx='-8.86' data-dy='-15.67'>
<path d="M 232.34 111.64 A 430.00 430.00 0 0 1 285.62 81.54 L 361.95 242.34 A 252.00 252.00 0 0 0 330.72 259.99 Z" fill="#60d2de"><title>Articulate toolchain (Authoring tools &amp; multimedia production)
9% of job adverts</title></path>
</g>
<g class='segment segment-subskill' tabindex='0' role='button' data-type='subskill' data-heading='Authoring tools &amp; multimedia production' data-subskill='Adobe &amp; creative tools' data-label='Adobe &amp; creative tools' data-jds='6' data-pct='6%' data-weight='4.5' data-member-phrases='Adobe Creative Cloud/Suite' data-dx='-6.94' data-dy='-16.61'>
<path d="M 285.62 81.54 A 430.00 430.00 0 0 1 323.29 65.80 L 384.02 233.12 A 252.00 252.00 0 0 0 361.95 242.34 Z" fill="#80dbe4"><title>Adobe &amp; creative tools (Authoring tools &amp; multimedia production)
6% of job adverts</title></path>
</g>
<g class='segment segment-subskill' tabindex='0' role='button' data-type='subskill' data-heading='Authoring tools &amp; multimedia production' data-subskill='Graphic &amp; visual design' data-label='Graphic &amp; visual design' data-jds='5' data-pct='5%' data-weight='6.0' data-member-phrases='graphic design | creative design' data-dx='-5.47' data-dy='-17.15'>
<path d="M 323.29 65.80 A 430.00 430.00 0 0 1 355.70 55.47 L 403.01 227.07 A 252.00 252.00 0 0 0 384.02 233.12 Z" fill="#a0e4eb"><title>Graphic &amp; visual design (Authoring tools &amp; multimedia production)
5% of job adverts</title></path>
</g>
<g class='segment segment-subskill' tabindex='0' role='button' data-type='subskill' data-heading='Authoring tools &amp; multimedia production' data-subskill='Multimedia &amp; video production' data-label='Multimedia &amp; video production' data-jds='4' data-pct='4%' data-weight='4.0' data-member-phrases='multimedia production | video editing' data-dx='-4.23' data-dy='-17.50'>
<path d="M 355.70 55.47 A 430.00 430.00 0 0 1 382.15 49.07 L 418.52 223.32 A 252.00 252.00 0 0 0 403.01 227.07 Z" fill="#c0edf2"><title>Multimedia &amp; video production (Authoring tools &amp; multimedia production)
4% of job adverts</title></path>
</g>
<g class='segment segment-heading' tabindex='0' role='button' data-type='heading' data-heading='AI capability' data-label='AI capability' data-total='13' data-top-subskills='Applied AI in workflow (7) || AI tools literacy (6)' data-color='#003f5c' data-dx='-1.44' data-dy='-13.93'>
<path d="M 419.95 230.17 A 245.00 245.00 0 0 1 470.00 225.00 L 470.00 388.00 A 82.00 82.00 0 0 0 453.25 389.73 Z" fill="#003f5c"><title>AI capability: 13% of job adverts</title></path>
</g>
<g class='segment segment-subskill' tabindex='0' role='button' data-type='subskill' data-heading='AI capability' data-subskill='Applied AI in workflow' data-label='Applied AI in workflow' data-jds='7' data-pct='7%' data-weight='13.0' data-member-phrases='AI application in L&amp;D | AI-enabled solutions | agentic AI | AI-driven tools' data-dx='-2.70' data-dy='-17.80'>
<path d="M 382.15 49.07 A 430.00 430.00 0 0 1 429.23 41.94 L 446.11 219.14 A 252.00 252.00 0 0 0 418.52 223.32 Z" fill="#2d6179"><title>Applied AI in workflow (AI capability)
7% of job adverts</title></path>
</g>
<g class='segment segment-subskill' tabindex='0' role='button' data-type='subskill' data-heading='AI capability' data-subskill='AI tools literacy' data-label='AI tools literacy' data-jds='6' data-pct='6%' data-weight='8.0' data-member-phrases='AI tools literacy' data-dx='-0.85' data-dy='-17.98'>
<path d="M 429.23 41.94 A 430.00 430.00 0 0 1 470.00 40.00 L 470.00 218.00 A 252.00 252.00 0 0 0 446.11 219.14 Z" fill="#bacbd2"><title>AI tools literacy (AI capability)
6% of job adverts</title></path>
</g>
</g>
<circle cx='470' cy='470' r='70' fill='#ffffff' stroke='#e5e7eb' stroke-width='2'/>
</svg>
